<svg xmlns="http://www.w3.org/2000/svg" width="1024" height="1024"><path fill="#563d7c" d="M853.333 0H170.666C76.501.256.255 76.501-.001 170.667v682.667c0 93.867 76.8 170.667 170.667 170.667h682.667c93.867 0 170.667-76.8 170.667-170.667V170.667C1024 76.8 947.2 0 853.333 0zm-93.312 719.147c-8.533 20.565-22.059 38.699-39.381 52.651-17.92 14.507-40.619 26.453-68.565 34.987-27.904 8.661-61.099 13.013-99.541 13.013H278.102V222.465h290.219c53.675 0 96.683 12.075 128.853 36.693 32.427 24.747 48.555 61.611 48.555 111.36 0 30.08-7.339 55.893-22.101 77.227-14.677 21.205-35.84 37.803-63.147 49.323v1.963c36.437 7.68 64.64 24.96 83.2 51.84s28.075 60.843 28.075 101.845c0 22.955-4.437 44.8-12.8 65.195zm-118.442-147.2c-17.493-16-42.069-23.808-73.813-23.808H383.361v186.368h184.917c31.573 0 56.32-8.192 73.813-24.747 17.493-16.427 26.453-39.851 26.453-69.973-.299-29.44-8.96-52.224-26.453-67.84zm-25.6-120.448c16.896-14.336 25.173-34.859 25.173-61.611 0-30.037-7.467-51.371-22.613-63.573-15.019-12.16-36.693-18.475-65.195-18.475H382.677v164.821h170.667c24.875 0 46.08-7.253 62.635-21.163z"/></svg>