<svg xmlns="http://www.w3.org/2000/svg" width="1024" height="1024"><path fill="#47a248" d="M733.013 406.101C679.125 168.874 552.021 90.922 538.368 61.098 523.349 40.063 507.093-.001 507.093-.001c-.085.811-.171 1.323-.213 2.091v.555h-.043c-.085.64-.128 1.067-.171 1.664v.64h-.085c0 .427-.085.768-.085 1.109v1.109h-.128c-.043.341-.043.768-.128 1.067v.896h-.085c0 .299 0 .64-.085.896v.853h-.085c0 .427-.043.939-.085 1.365v.085c-.128.725-.256 1.451-.384 2.133v.341h-.085c-.043.171-.128.341-.128.512v.725h-.128v.939h-.213v.768h-.213v.896h-.171v.811h-.171v.725h-.256v.597h-.171v.768h-.171v.597h-.213v.555h-.128v.64h-.171c-.043.043-.043.128-.043.171v.427h-.128c-.043.085-.043.171-.043.256v.256h-.085a1.853 1.853 0 0 0-.085.427c-.128.299-.299.597-.427.896v.085a1.265 1.265 0 0 0-.213.299v.341h-.171v.341h-.213v.341h-.128v.427h-.256v.597h-.171v.171h-.171v.341h-.171v.469h-.171v.341h-.256v.469h-.171v.341h-.213v.341h-.128v.427h-.213v.341h-.171v.256h-.171v.341h-.256v.384h-.171v.256h-.213v.341h-.171v.469h-.213v.171h-.128V34h-.256v.171h-.171v.427h-.171v.171h-.171v.341h-.213v.256h-.128l-.085.171v.171h-.085c-.043.085-.085.085-.085.171v.043h-.043a.69.69 0 0 1-.171.299v.128h-.043c-.213.256-.341.512-.512.768v.043c-.085.085-.299.256-.384.427v.085h-.043c-.043.043-.128.085-.128.128v.128h-.085l-.128.128v.043h-.043c0 .043-.085.085-.128.171v.171h-.128l-.085.085v.085h-.085c0 .085-.085.085-.085.128v.128h-.171c0 .043-.043.085-.085.128v.256h-.128v.171h-.171v.256h-.171v.341h-.213v-.341h-.213v.171h-.171v.256h-.213v.341h-.213v.171h-.171v.256h-.171v.171h-.171v.341h-.256v.171h-.171v.256h-.213v.171h-.171v.213h-.213v.427h-.085v.171h-.256v.213h-.171v.085h-.171v.171h-.213v.427h-.171v.171h-.213v.171h-.171v.256h-.213v.171h-.213v.171h-.171v.171h-.171v.427h-.171v.213h-.256v.171h-.171v.171h-.213v.256h-.171v.171h-.213v.299h-.171v.171h-.256v.256h-.085v.171h-.171v.171h-.213v.171h-.171v.256h-.213v.171h-.128c-.043.043-.043.085-.043.085v.085h-.085l-.171.171s-.085.085-.171.128v.256h-.171v.213h-.171v.171h-.171v.171h-.128l-.128.128v.128h-.085l-.085.085v.128h-.085c-.213.256-.299.427-.597.683a6.646 6.646 0 0 1-.512.427c-.512.341-1.152.896-1.664 1.365-.341.213-.683.512-.939.725v.043h-.043c-.683.555-1.323 1.067-2.091 1.664v.043c-1.024.853-2.005 1.664-3.157 2.645v-.043h-.085c-2.432 2.005-4.992 4.267-7.936 6.784v.043h-.043c-7.211 6.315-15.787 14.421-25.387 24.235l-.811.811c-58.027 60.032-149.461 185.131-159.104 387.285-.853 16.725-.683 32.981.256 48.811v.384c4.651 79.659 29.653 147.669 60.928 202.923v.043c12.459 22.016 25.899 42.027 39.509 59.947v.043c47.019 62.08 95.019 98.859 107.264 107.776 18.816 43.648 17.067 118.571 17.067 118.571l27.477 9.173s-5.589-72.576 2.261-107.605c2.432-10.965 8.192-20.309 14.891-28.245 4.523-3.2 17.92-12.843 34.005-27.52.768-.811 1.195-1.536 1.877-2.304 64.896-60.501 186.112-209.493 144.555-452.224z"/></svg>