<svg xmlns="http://www.w3.org/2000/svg" width="1024" height="1024"><path fill="#8dd6f9" d="M896.67 773.129 526.976 981.334V819.171l230.34-126.153zm25.288-22.802V314.901L786.671 392.64v279.863zM124.83 773.129l369.694 208.205V819.171l-230.34-126.153zm-25.289-22.802V314.901l135.283 77.739v279.863zm15.83-463.598L494.524 73.157v156.791L249.771 364.024zm790.762 0L526.976 73.157v156.791l244.753 134.08zM494.528 782.285 267.277 657.89V411.392L494.52 542.037zm32.448 0L754.219 657.89V411.392L526.976 542.037zm-244.309-399.42 228.126-124.928 228.13 124.928-228.13 131.174z"/></svg>