<!-- Generated by IcoMoon.io -->
<svg version="1.1" xmlns="http://www.w3.org/2000/svg" width="1024" height="1024" viewBox="0 0 1024 1024">
<g id="icomoon-ignore">
</g>
<path fill="#8dd6f9" d="M896.67 773.129l-369.694 208.205v-162.163l230.34-126.153zM921.958 750.327v-435.426l-135.287 77.739v279.863zM124.83 773.129l369.694 208.205v-162.163l-230.34-126.153zM99.541 750.327v-435.426l135.283 77.739v279.863zM115.371 286.729l379.153-213.572v156.791l-244.753 134.076zM906.133 286.729l-379.157-213.572v156.791l244.753 134.080zM494.528 782.285l-227.251-124.395v-246.498l227.243 130.645zM526.976 782.285l227.243-124.395v-246.498l-227.243 130.645zM282.667 382.865l228.126-124.928 228.13 124.928-228.13 131.174z"></path>
</svg>
